<svg xmlns="http://www.w3.org/2000/svg" viewBox="0 0 100 100" fill="none">
  <!-- Center circle -->
  <circle cx="50" cy="50" r="20" fill="#000"/>
  
  <!-- Radiating segments (16 total) -->
  <line x1="50" y1="25" x2="50" y2="5" stroke="#fff" stroke-width="8" stroke-linecap="round"/>
  <line x1="67.68" y1="31.16" x2="82.32" y2="17.68" stroke="#fff" stroke-width="8" stroke-linecap="round"/>
  <line x1="75" y1="50" x2="95" y2="50" stroke="#fff" stroke-width="8" stroke-linecap="round"/>
  <line x1="67.68" y1="68.84" x2="82.32" y2="82.32" stroke="#fff" stroke-width="8" stroke-linecap="round"/>
  <line x1="50" y1="75" x2="50" y2="95" stroke="#fff" stroke-width="8" stroke-linecap="round"/>
  <line x1="32.32" y1="68.84" x2="17.68" y2="82.32" stroke="#fff" stroke-width="8" stroke-linecap="round"/>
  <line x1="25" y1="50" x2="5" y2="50" stroke="#fff" stroke-width="8" stroke-linecap="round"/>
  <line x1="32.32" y1="31.16" x2="17.68" y2="17.68" stroke="#fff" stroke-width="8" stroke-linecap="round"/>
  <!-- Diagonal segments -->
  <line x1="58.84" y1="32.32" x2="68.29" y2="12.44" stroke="#fff" stroke-width="8" stroke-linecap="round"/>
  <line x1="67.68" y1="41.16" x2="87.56" y2="31.71" stroke="#fff" stroke-width="8" stroke-linecap="round"/>
  <line x1="67.68" y1="58.84" x2="87.56" y2="68.29" stroke="#fff" stroke-width="8" stroke-linecap="round"/>
  <line x1="58.84" y1="67.68" x2="68.29" y2="87.56" stroke="#fff" stroke-width="8" stroke-linecap="round"/>
  <line x1="41.16" y1="67.68" x2="31.71" y2="87.56" stroke="#fff" stroke-width="8" stroke-linecap="round"/>
  <line x1="32.32" y1="58.84" x2="12.44" y2="68.29" stroke="#fff" stroke-width="8" stroke-linecap="round"/>
  <line x1="32.32" y1="41.16" x2="12.44" y2="31.71" stroke="#fff" stroke-width="8" stroke-linecap="round"/>
  <line x1="41.16" y1="32.32" x2="31.71" y2="12.44" stroke="#fff" stroke-width="8" stroke-linecap="round"/>
</svg>
